<?xml version="1.0" encoding="UTF-8" standalone="no"?>
<svg
   xmlns:dc="http://purl.org/dc/elements/1.1/"
   xmlns:cc="http://creativecommons.org/ns#"
   xmlns:rdf="http://www.w3.org/1999/02/22-rdf-syntax-ns#"
   xmlns:svg="http://www.w3.org/2000/svg"
   xmlns="http://www.w3.org/2000/svg"
   viewBox="0 0 279.64001 77.959999"
   height="77.959999"
   width="279.64001"
   xml:space="preserve"
   id="svg2"
   version="1.1"><metadata
     id="metadata8"><rdf:RDF><cc:Work
         rdf:about=""><dc:format>image/svg+xml</dc:format><dc:type
           rdf:resource="http://purl.org/dc/dcmitype/StillImage" /></cc:Work></rdf:RDF></metadata><defs
     id="defs6" /><g
     transform="matrix(1.3333333,0,0,-1.3333333,0,77.96)"
     id="g10"><g
       transform="scale(0.1)"
       id="g12"><path
         id="path14"
         style="fill:#100f0d;fill-opacity:1;fill-rule:nonzero;stroke:none"
         d="m 190.293,195.25 v 80.48 c -16.398,23.848 -39.258,32.793 -63.594,32.793 -40.242,0 -69.5584,-34.281 -69.5584,-73.031 0,-39.254 29.3164,-73.527 69.5584,-73.527 24.336,0 47.196,8.937 63.594,33.285 z m 57.129,-77.508 h -57.129 v 16.899 C 170.906,120.23 146.563,112.273 118.254,112.273 52.6641,112.273 0,166.93 0,235.492 c 0,68.063 52.6641,122.715 118.254,122.715 28.309,0 52.652,-7.949 72.039,-21.859 v 134.14 h 57.129 V 117.742" /><path
         id="path16"
         style="fill:#100f0d;fill-opacity:1;fill-rule:nonzero;stroke:none"
         d="m 345.754,255.367 h 124.707 c -3.977,34.774 -24.848,56.137 -58.137,56.137 -38.254,0 -60.117,-23.848 -66.57,-56.137 z M 527.09,220.09 H 344.758 c 4.969,-33.289 27.82,-59.121 70.555,-59.121 22.851,0 39.25,7.449 47.695,21.859 h 61.101 c -13.406,-43.223 -56.629,-72.535 -110.293,-72.535 -75.015,0 -125.203,55.145 -125.203,124.703 0,72.039 50.188,125.199 123.711,125.199 66.582,0 115.762,-48.691 116.262,-121.226 0,-8.446 -0.5,-12.914 -1.496,-18.879" /><path
         id="path18"
         style="fill:#100f0d;fill-opacity:1;fill-rule:nonzero;stroke:none"
         d="m 606.047,196.738 c 4.969,-27.82 25.84,-39.746 57.637,-39.746 27.82,0 47.195,9.938 47.195,25.836 0,12.422 -9.941,21.36 -28.32,24.844 l -51.172,8.441 c -35.774,6.461 -69.563,24.844 -69.563,67.571 0,47.199 40.246,75.515 98.879,75.515 40.235,0 98.367,-13.906 103.828,-78 l -53.152,-0.496 c -1.992,23.848 -23.852,34.281 -50.676,34.281 -27.832,0 -42.234,-11.429 -42.234,-25.336 0,-11.429 7.949,-22.359 33.289,-26.832 l 43.722,-6.957 c 35.77,-6.457 70.047,-22.351 70.047,-68.062 0,-50.18 -44.218,-77.504 -103.339,-77.504 -53.653,0 -103.34,22.352 -108.809,86.941 l 52.668,-0.496" /><path
         id="path20"
         style="fill:#100f0d;fill-opacity:1;fill-rule:nonzero;stroke:none"
         d="m 868.328,170.41 v -52.668 h -57.137 v 352.746 h 57.137 V 245.93 l 103.344,106.812 h 73.038 L 950.305,255.367 1058.12,117.742 h -74.526 l -73.035,96.391 -42.231,-43.723" /><path
         id="path22"
         style="fill:#100f0d;fill-opacity:1;fill-rule:nonzero;stroke:none"
         d="m 1273.7,234.996 c 0,39.246 -28.82,73.527 -69.56,73.527 -24.35,0 -46.7,-8.945 -63.1,-32.793 v -80.98 c 16.4,-23.848 38.75,-32.785 63.1,-32.785 40.74,0 69.56,34.273 69.56,73.031 z m 57.13,0 c 0,-68.066 -52.67,-122.723 -118.24,-122.723 -28.32,0 -52.67,7.957 -71.55,21.868 V 0 h -57.62 v 352.742 h 57.62 v -16.394 c 18.88,13.91 43.23,21.859 71.55,21.859 65.57,0 118.24,-54.652 118.24,-123.211" /><path
         id="path24"
         style="fill:#100f0d;fill-opacity:1;fill-rule:nonzero;stroke:none"
         d="m 1550.39,195.25 v 79.988 c -16.4,24.34 -39.26,33.285 -63.59,33.285 -40.25,0 -69.56,-34.281 -69.56,-73.527 0,-38.758 29.31,-73.031 69.56,-73.031 24.33,0 47.19,8.937 63.59,33.285 z m 57.13,157.492 v -235 h -57.13 v 16.399 c -19.38,-13.911 -43.73,-21.868 -72.04,-21.868 -65.59,0 -118.25,54.657 -118.25,122.723 0,68.559 52.66,123.211 118.25,123.211 28.31,0 52.66,-7.949 72.04,-21.859 v 16.394 h 57.13" /><path
         id="path26"
         style="fill:#100f0d;fill-opacity:1;fill-rule:nonzero;stroke:none"
         d="m 1699.38,196.738 c 4.98,-27.82 25.84,-39.746 57.64,-39.746 27.82,0 47.2,9.938 47.2,25.836 0,12.422 -9.94,21.36 -28.32,24.844 l -51.17,8.441 c -35.77,6.461 -69.56,24.844 -69.56,67.571 0,47.199 40.24,75.515 98.87,75.515 40.24,0 98.37,-13.906 103.83,-78 l -53.15,-0.496 c -2,23.848 -23.85,34.281 -50.68,34.281 -27.83,0 -42.23,-11.429 -42.23,-25.336 0,-11.429 7.95,-22.359 33.29,-26.832 l 43.72,-6.957 c 35.77,-6.457 70.05,-22.351 70.05,-68.062 0,-50.18 -44.22,-77.504 -103.34,-77.504 -53.65,0 -103.34,22.352 -108.81,86.941 l 52.66,-0.496" /><path
         id="path28"
         style="fill:#100f0d;fill-opacity:1;fill-rule:nonzero;stroke:none"
         d="m 1937.83,196.738 c 4.97,-27.82 25.84,-39.746 57.64,-39.746 27.82,0 47.2,9.938 47.2,25.836 0,12.422 -9.95,21.36 -28.32,24.844 l -51.18,8.441 c -35.77,6.461 -69.56,24.844 -69.56,67.571 0,47.199 40.25,75.515 98.87,75.515 40.24,0 98.38,-13.906 103.84,-78 l -53.16,-0.496 c -1.99,23.848 -23.84,34.281 -50.68,34.281 -27.81,0 -42.23,-11.429 -42.23,-25.336 0,-11.429 7.95,-22.359 33.29,-26.832 l 43.73,-6.957 c 35.77,-6.457 70.04,-22.351 70.04,-68.062 0,-50.18 -44.21,-77.504 -103.34,-77.504 -53.65,0 -103.34,22.352 -108.79,86.941 l 52.65,-0.496" /><path
         id="path30"
         style="fill:#7bd3dd;fill-opacity:1;fill-rule:nonzero;stroke:none"
         d="m 190.293,527.617 h 678.035 v 57.1289 H 190.293 Z" /></g></g></svg>